<svg width="100" height="100" viewBox="0 0 100 100" fill="none" xmlns="http://www.w3.org/2000/svg">
<g clip-path="url(#clip0_76_13)">
<path d="M51.7417 98.7752C51.0243 100.211 48.9751 100.211 48.2572 98.7752L38.6473 79.5555C34.4278 71.1165 40.5644 61.1873 49.9995 61.1873C59.4346 61.1873 65.5715 71.1165 61.352 79.5555L51.7417 98.7752Z" fill="#6C63FF"/>
<path fill-rule="evenodd" clip-rule="evenodd" d="M15.7734 61.4858C15.7734 64.3457 18.0918 66.6641 20.9517 66.6641H24.1467C26.2457 66.6641 28.2683 65.8757 29.8135 64.455L38.4971 56.472C40.3921 54.7299 42.8724 53.763 45.4464 53.763H50.0006H54.5548C57.1287 53.763 59.6088 54.7299 61.5043 56.472L70.1877 64.455C71.7327 65.8757 73.7556 66.6641 75.8544 66.6641H79.0491C81.9092 66.6641 84.2277 64.3457 84.2277 61.4858V41.7844C84.2277 22.5405 71.4425 5.64049 52.9249 0.405793C51.013 -0.134996 48.9883 -0.134996 47.0762 0.405793C28.5586 5.64049 15.7734 22.5405 15.7734 41.7844L15.7734 61.4858ZM60.2687 26.9606C60.2687 21.2898 55.6713 16.6924 50.0006 16.6924C44.3296 16.6924 39.7324 21.2898 39.7324 26.9606C39.7324 32.6313 44.3296 37.2287 50.0006 37.2287C55.6713 37.2287 60.2687 32.6313 60.2687 26.9606Z" fill="#6C63FF"/>
</g>
<defs>
<clipPath id="clip0_76_13">
<rect width="100" height="100" fill="white"/>
</clipPath>
</defs>
</svg>
